<svg width="28" height="28" viewBox="0 0 28 28" fill="none" xmlns="http://www.w3.org/2000/svg">
<path d="M2.82406 14.9316C3.23182 14.9512 3.62146 14.9484 3.92866 14.94V25.6218C3.92866 26.9331 4.90343 28 6.10159 28H21.9028C23.101 28 24.0771 26.9331 24.0771 25.6218L24.0785 14.94C24.3843 14.9498 24.7726 14.954 25.1775 14.9358C26.5601 14.8744 27.384 14.6035 27.7708 14.0868C28.0208 13.7516 28.0669 13.3326 27.9007 12.9081C27.8686 12.8257 27.8183 12.7517 27.7541 12.6917L25.8953 10.946V0.593881C25.8953 0.265706 25.63 0.000357509 25.3018 0.000357509H20.6654C20.3372 0.000357509 20.0719 0.265691 20.0719 0.593881V5.47735L14.4105 0.160947C14.1828 -0.0527169 13.8281 -0.0541113 13.5991 0.159551L0.25574 12.6245C0.192898 12.6832 0.14402 12.753 0.111902 12.8326C-0.0696403 13.2753 -0.0291425 13.7096 0.225019 14.0587C0.611836 14.5866 1.43734 14.8632 2.82406 14.9316ZM21.2575 6.58898V1.18749H24.7069V9.83188L21.2575 6.59202V6.58898ZM14.0028 1.40664L26.7834 13.408C26.6773 13.489 26.2988 13.6915 25.1621 13.7473C24.327 13.7878 23.5422 13.7236 23.5352 13.7222C23.3704 13.7082 23.2056 13.7641 23.0841 13.8758C22.9612 13.9875 22.8928 14.1467 22.8928 14.3129V25.6203C22.8928 26.278 22.4501 26.8115 21.9055 26.8115L6.10286 26.8129C5.55824 26.8129 5.11694 26.278 5.11694 25.6217V14.3143C5.11694 14.1481 5.04712 13.9903 4.92562 13.8772C4.8153 13.7766 4.67146 13.7208 4.52343 13.7208C4.50667 13.7208 4.48992 13.7208 4.47316 13.7222C4.46478 13.7222 3.67993 13.7878 2.83648 13.7431C1.59359 13.6775 1.26265 13.4345 1.19562 13.3702L14.0028 1.40664Z" fill="#3A49FF"/>
<path d="M10.0564 22.7995H18.1324C18.4605 22.7995 18.7259 22.5342 18.7259 22.206V14.0296C18.7259 13.7014 18.4606 13.436 18.1324 13.436H10.0564C9.72824 13.436 9.46289 13.7014 9.46289 14.0296V22.2045C9.46289 22.5327 9.72962 22.7995 10.0564 22.7995ZM10.6499 18.7104H13.5002V21.6109H10.6499V18.7104ZM14.6886 21.6123V18.7118H17.5389V21.6123H14.6886ZM17.5389 17.5232H14.6886V14.6227H17.5389V17.5232ZM13.5016 14.6227V17.5232H10.6514V14.6227H13.5016Z" fill="#3A49FF"/>
</svg>
